<svg xmlns="http://www.w3.org/2000/svg" viewBox="0 0 227.1 67.06">
	<defs>
		<style>
			.logoKcls1 {
				fill: #223368;
			}
			.logoKcls2 {
				fill: #fd5709;
			}
			.logoKcls3 {
				fill: #ff7b15;
			}
			.logoKcls4 {
				fill: #ff2c01;
			}
			.logoKcls5 {
				fill: #98d000;
			}
			.logoKcls6 {
				fill: #3d82d7;
			}
			.logoKcls7 {
				fill: #2967c8;
			}
			.logoKcls8 {
				fill: #0a36aa;
			}
			.logoKcls9 {
				fill: #ff3b02;
			}
		</style>
	</defs>
	<g>
		<path class="logoKcls1" d="M15.76,25.6V20.5H0V43H15.76v-5.1H6.29V34.05h8.14V29.4H6.29V25.6Z" />
		<path class="logoKcls1" d="M20.48,20.5V43h9.41c7.77,0,9-4.41,9-6.19a5,5,0,0,0-3.13-5,5.09,5.09,0,0,0,2.8-4.88c0-2.12-1.44-6.37-8.77-6.37Zm6.29,13.32c2.79-.45,5.83.25,5.83,2.09s-3,2.53-5.83,2.09Zm0-8.29c2.79-.45,5.83.25,5.83,2.09s-3,2.53-5.83,2.09Z" />
		<path class="logoKcls1" d="M42.67,42.82a32.43,32.43,0,0,0,8.1.46c3.49-.28,7.87-2.19,8-7.3a5.81,5.81,0,0,0-4.12-6l-5.16-1.72a1.51,1.51,0,0,1-1-1.1c0-.84.7-1.62,2.32-1.8a21.94,21.94,0,0,1,6.55.66l0-5.23a29.87,29.87,0,0,0-6.46-.9c-4.16-.12-8.33,2.37-8.59,7.23a5.94,5.94,0,0,0,4.11,6.13l4.75,1.6c1.18.47,1.22.94,1.25,1.31.06.68-.65,1.2-1.6,1.54-1.23.45-4.89.48-8-.4l0,5.56Z" />
		<path class="logoKcls2" d="M101,38.5A8.89,8.89,0,0,0,89,38.5a7.52,7.52,0,0,0-2.45,5.2A7.58,7.58,0,0,0,89,48.91a8.89,8.89,0,0,0,11.93,0l5.59-5.2Z" />
		<path class="logoKcls3" d="M91.37,57.78c0,4.33-3.77,7.84-8.43,7.84s-8.43-3.51-8.43-7.84v-33c0-4.33,3.77-7.84,8.43-7.84s8.43,3.51,8.43,7.84Z" />
		<path class="logoKcls3" d="M101,49A8.89,8.89,0,0,1,89,49a7.47,7.47,0,0,1,0-11.1l15.38-14.31a8.89,8.89,0,0,1,11.93,0,7.47,7.47,0,0,1,0,11.1Z" />
		<path class="logoKcls3" d="M89,49.65a7.47,7.47,0,0,1,0-11.1,8.89,8.89,0,0,1,11.93,0l15.38,14.31a7.47,7.47,0,0,1,0,11.1,8.89,8.89,0,0,1-11.93,0Z" />
		<path class="logoKcls4 kDot dot" d="M94.63,51.21a7.8,7.8,0,0,0,8.07-7.5,8.09,8.09,0,0,0-16.13,0A7.8,7.8,0,0,0,94.63,51.21Z" />
		<path class="logoKcls5" d="M144.82,58.61c0,4.34-3.78,7.84-8.43,7.84S128,62.93,128,58.61V38.38c0-4.33,3.77-7.84,8.43-7.84s8.43,3.52,8.43,7.84Z" />
		<path class="logoKcls5" d="M144.82,7.84c0,4.33-3.78,7.84-8.43,7.84S128,12.17,128,7.84,131.73,0,136.39,0,144.82,3.52,144.82,7.84Z" />
		<path class="logoKcls6" d="M189.16,28.47a7.82,7.82,0,1,0-15.63,0s-.16,14.85-.16,19.81a3,3,0,0,0,0,.32c0,.08,0,.17,0,.26a6.9,6.9,0,0,0,1.2,3.86,7.57,7.57,0,0,0,6.56,3.4h0a7.55,7.55,0,0,0,6.91-3.87,6.79,6.79,0,0,0,.91-3.39v-.15c0-.15,0-.29,0-.42l.16-19.81Z" />
		<path class="logoKcls6" d="M170.13,31.31c-10.43,0-18.87,7.85-18.87,17.55s8.44,17.55,18.87,17.55S189,58.56,189,48.86,180.55,31.31,170.13,31.31Zm0,20.46a2.91,2.91,0,1,1,3.12-2.9A3,3,0,0,1,170.13,51.76Z" />
		<path class="logoKcls7" d="M189,48.54c-.16-8.48-6.79-15.5-15.5-16.95,0,4.63-.13,13.16-.13,16.68a7.46,7.46,0,0,0,7.82,7.84C185.5,56.12,188.87,53.36,189,48.54Z" />
		<path class="logoKcls8 dDot dot" d="M188.91,50a7.35,7.35,0,0,0-6.46-8.34,7.77,7.77,0,0,0-9,6A7.35,7.35,0,0,0,179.94,56,7.77,7.77,0,0,0,188.91,50Z" />
		<path class="logoKcls3" d="M226.28,47.56a.41.41,0,0,0,0-.06c0-.05,0-.11-.06-.15-.09-.24-.21-.48-.31-.72-2-4-8.35-7.16-11.83-8.65-1.39-.59-2.86-1-3.07-1.1a2.42,2.42,0,0,1-.95-.52,1.24,1.24,0,0,1-.4-.75c0-1.18,1.22-1.54,3.67-1.54h4.17a7,7,0,0,0,7.22-6.72,7,7,0,0,0-7.22-6.72h-4.17c-10,0-18.13,6.72-18.13,15a13.37,13.37,0,0,0,1.63,6.3c.68,1.18,3.76,5.48,13.68,8.06a3.93,3.93,0,0,1,1.22.3,1.47,1.47,0,0,1,.91,1.46c0,1.18-1.22,1.9-3.67,1.9h-6.87a6.74,6.74,0,1,0,0,13.44H209c10,0,18.13-6.72,18.13-15a12.76,12.76,0,0,0-.68-4.12c0-.13-.1-.26-.15-.41Z" />
		<path class="logoKcls9 sDot dot" d="M218.36,44.87a6.25,6.25,0,0,0-5.49-7.09,6.6,6.6,0,0,0-7.62,5.11A6.25,6.25,0,0,0,210.74,50,6.6,6.6,0,0,0,218.36,44.87Z" />
	</g>
</svg>