<svg xmlns="http://www.w3.org/2000/svg" viewBox="0 0 149 36">
	<defs>
		<style>
			.logoNavy {
				fill: #005083;
			}
			.logoOrange {
				fill: #f39800;
			}
			.logoGreen {
				fill: #aacf52;
			}
			.logoWhite {
				fill: #fff;
			}
		</style>
	</defs>
	<g>
		<path class="logoNavy" d="M10,13.82V10.29H0V25.88H10V22.34H4V19.69H9.15V16.47H4V13.82Z" />
		<path class="logoNavy" d="M13,10.29v15.6h6c4.93,0,5.74-3.06,5.74-4.3a3.5,3.5,0,0,0-2-3.5,3.6,3.6,0,0,0,1.78-3.38c0-1.47-.91-4.42-5.57-4.42Zm4,9.24c1.77-.31,3.7.18,3.7,1.45s-1.93,1.76-3.7,1.45Zm0-5.75c1.77-.31,3.7.18,3.7,1.45S18.75,17,17,16.67Z" />
		<path class="logoNavy" d="M27.08,25.77a19,19,0,0,0,5.14.32c2.21-.19,5-1.52,5-5.06a4.05,4.05,0,0,0-2.62-4.17l-3.27-1.19a1,1,0,0,1-.65-.76c0-.58.44-1.13,1.48-1.26a12.87,12.87,0,0,1,4.16.46l0-3.63a17.17,17.17,0,0,0-4.1-.62,5.12,5.12,0,0,0-5.45,5,4.14,4.14,0,0,0,2.61,4.25l3,1.11c.75.33.77.65.79.91,0,.47-.41.83-1,1.06a10,10,0,0,1-5.1-.28v3.86Z" />
		<path class="logoNavy" d="M68.37,26a7.73,7.73,0,0,1-4.91-1.76A7.73,7.73,0,0,1,58.54,26a8,8,0,0,1,0-15.95,7.73,7.73,0,0,1,4.9,1.76,7.73,7.73,0,0,1,4.93-1.77,7.91,7.91,0,0,1,7.85,8h0a17.71,17.71,0,1,0-35.41,0,17.69,17.69,0,0,0,35.36.85A7.9,7.9,0,0,1,68.37,26Z" />
		<path class="logoOrange logoNone" d="M68.37,10.05a7.73,7.73,0,0,0-4.93,1.77,8,8,0,0,1,0,12.42A7.73,7.73,0,0,0,68.37,26a7.9,7.9,0,0,0,7.8-7.15c0-.28,0-.55,0-.84A7.91,7.91,0,0,0,68.37,10.05Z" />
		<path class="logoGreen logoNone" d="M50.69,18a7.91,7.91,0,0,0,7.85,8,7.73,7.73,0,0,0,4.92-1.77,8,8,0,0,1,0-12.42,7.73,7.73,0,0,0-4.9-1.76A7.91,7.91,0,0,0,50.69,18Z" />
		<path class="logoWhite" d="M60.52,18a8,8,0,0,0,2.94,6.22,8.06,8.06,0,0,0,0-12.43A8,8,0,0,0,60.52,18Z" />
		<path class="logoNavy" d="M79.76,18a7.85,7.85,0,1,1,7.85,8A7.91,7.91,0,0,1,79.76,18Z" />
		<path class="logoNavy" d="M99,10.27V22h10V10.27Zm6,8.64h-2V13.46h2Z" />
		<path class="logoNavy" d="M114.34,10.27h-4V25.85h4Z" />
		<path class="logoOrange" d="M131.14,5.57h-4V9.1h4Z" />
		<path class="logoNavy" d="M127.13,10.27v8.65h-7V13.46h5.19V10.27h-9.2V22h11v3.8h4V10.27Z" />
		<path class="logoNavy" d="M145,10.27v4.07h-1.28A5.8,5.8,0,1,0,138.22,22a5.8,5.8,0,0,0,5.62-4.52H145v8.32h4V10.27Zm-6.77,8.19a2.3,2.3,0,1,1,2.3-2.3A2.3,2.3,0,0,1,138.22,18.46Z" />
	</g>
</svg>