<svg width="46" height="46" viewBox="0 0 46 46" fill="none" xmlns="http://www.w3.org/2000/svg">
    <g clip-path="url(#clip0_7_26)">
        <path d="M7.67109 7.164C7.67109 8.99985 7.67109 10.8357 7.67109 12.6647C7.67109 12.7544 7.67109 12.8441 7.67109 12.9407C7.68881 13.2996 7.99884 13.5481 8.42403 13.555C8.8315 13.5619 9.18583 13.3065 9.19468 12.9545C9.2124 12.43 9.20354 11.8986 9.20354 11.374C9.20354 8.08883 9.20354 4.81051 9.19468 1.52529C9.19468 1.22161 9.24783 0.938639 9.52243 0.710882C9.89447 0.407206 10.3551 0.338189 10.8423 0.469322C11.3649 0.607356 11.6218 0.931737 11.6484 1.35274C11.7547 2.93324 11.861 4.50683 11.9673 6.08733C12.1356 8.65477 12.3304 11.2291 12.4722 13.7966C12.5608 15.4668 11.8344 16.9092 10.2665 18.0549C8.85808 19.0971 8.14943 20.3394 8.2203 21.8716C8.43289 26.1161 8.62777 30.3607 8.8315 34.5984C8.97323 37.4971 9.11496 40.3889 9.23897 43.2876C9.28327 44.3229 8.51261 45.1787 7.31677 45.4824C5.47429 45.9586 3.58752 44.8405 3.65839 43.3221C3.83555 39.7608 4.01271 36.1926 4.18987 32.6314C4.36703 28.9941 4.56191 25.3638 4.73021 21.7266C4.79222 20.3532 4.14558 19.1868 2.8523 18.2551C1.51473 17.2819 0.628923 16.1155 0.478336 14.7007C0.372039 13.7758 0.478336 12.8372 0.531484 11.9124C0.664355 9.75904 0.823801 7.5988 0.96553 5.44547C1.05411 4.09273 1.13383 2.73309 1.24013 1.38035C1.30214 0.690177 1.95763 0.289877 2.746 0.427911C3.31292 0.524535 3.66724 0.890327 3.68496 1.42176C3.70268 1.80826 3.68496 2.19475 3.68496 2.57435C3.68496 5.94929 3.68496 9.32423 3.6761 12.6992C3.6761 13.2651 3.92413 13.5481 4.4379 13.555C4.93395 13.5619 5.20855 13.2582 5.20855 12.7061C5.20855 8.97915 5.20855 5.24532 5.21741 1.51838C5.21741 0.938639 5.52744 0.565946 6.12093 0.441715C6.95359 0.26227 7.67109 0.724685 7.67995 1.44937C7.67995 3.14029 7.67995 4.83121 7.67995 6.52904C7.67995 6.73609 7.67995 6.95004 7.67109 7.164C7.67995 7.164 7.67995 7.164 7.67109 7.164ZM4.79222 32.3829C4.70364 34.2326 4.59734 36.0891 4.50876 37.9388C4.42018 39.7401 4.32274 41.5415 4.25188 43.3428C4.20759 44.3781 5.22627 45.158 6.51955 45.1373C7.76853 45.1166 8.70749 44.3091 8.65434 43.3083C8.61005 42.3559 8.57462 41.4035 8.53033 40.451C8.35317 36.6206 8.16715 32.797 7.98113 28.9665C7.86597 26.6062 7.76853 24.2458 7.64452 21.8854C7.5648 20.3325 8.17601 18.9866 9.63759 17.9169C11.294 16.7091 12.0381 15.2459 11.8964 13.4791C11.6838 10.6908 11.5155 7.89558 11.3383 5.10038C11.2586 3.87877 11.1789 2.65027 11.0903 1.42866C11.0637 1.04216 10.8157 0.842015 10.4171 0.848917C10.0185 0.855818 9.78818 1.06977 9.78818 1.44937C9.78818 3.65102 9.77932 5.84577 9.77932 8.04742C9.77932 9.65552 9.78818 11.2705 9.77932 12.8786C9.77932 13.5964 9.06181 14.0864 8.21144 13.976C7.51165 13.9001 7.08646 13.4584 7.08646 12.8096C7.08646 9.12408 7.08646 5.43166 7.08646 1.74614C7.08646 1.5874 7.10418 1.42176 7.06875 1.26302C7.0156 0.993853 6.78529 0.855818 6.43982 0.855818C6.09436 0.855818 5.87291 0.993853 5.8109 1.26302C5.78432 1.38035 5.79318 1.50458 5.79318 1.62881C5.79318 3.92018 5.79318 6.21156 5.79318 8.50293C5.79318 9.95229 5.79318 11.4017 5.79318 12.851C5.79318 13.4791 5.28827 13.9484 4.57963 14.0036C3.74697 14.0588 3.11804 13.6102 3.10033 12.92C3.08261 11.9055 3.09147 10.8909 3.09147 9.88327C3.09147 7.07427 3.09147 4.27217 3.09147 1.46317C3.09147 1.09738 2.87002 0.883425 2.48912 0.869622C2.09936 0.842015 1.85134 1.05597 1.82476 1.43556C1.69189 3.40946 1.55902 5.38335 1.42615 7.35724C1.29328 9.35874 1.19584 11.3671 1.00982 13.3686C0.841517 15.2045 1.5856 16.7229 3.30406 17.979C4.69478 18.9866 5.37685 20.2635 5.31485 21.7335C5.17312 25.2741 4.96938 28.8285 4.79222 32.3829Z" fill="black"/>
        <path d="M7.67109 7.164C7.67109 8.99985 7.67109 10.8357 7.67109 12.6647C7.67109 12.7544 7.67109 12.8441 7.67109 12.9407C7.68881 13.2996 7.99884 13.5481 8.42403 13.555C8.8315 13.5619 9.18583 13.3065 9.19468 12.9545C9.2124 12.43 9.20354 11.8986 9.20354 11.374C9.20354 8.08883 9.20354 4.81051 9.19468 1.52529C9.19468 1.22161 9.24783 0.938639 9.52243 0.710882C9.89447 0.407206 10.3551 0.338189 10.8423 0.469322C11.3649 0.607356 11.6218 0.931737 11.6484 1.35274C11.7547 2.93324 11.861 4.50683 11.9673 6.08733C12.1356 8.65477 12.3304 11.2291 12.4722 13.7966C12.5608 15.4668 11.8344 16.9092 10.2665 18.0549C8.85808 19.0971 8.14943 20.3394 8.2203 21.8716C8.43289 26.1161 8.62777 30.3607 8.8315 34.5984C8.97323 37.4971 9.11496 40.3889 9.23897 43.2876C9.28327 44.3229 8.51261 45.1787 7.31677 45.4824C5.47429 45.9586 3.58752 44.8405 3.65839 43.3221C3.83555 39.7608 4.01271 36.1926 4.18987 32.6314C4.36703 28.9941 4.56191 25.3638 4.73021 21.7266C4.79222 20.3532 4.14558 19.1868 2.8523 18.2551C1.51473 17.2819 0.628923 16.1155 0.478336 14.7007C0.372039 13.7758 0.478336 12.8372 0.531484 11.9124C0.664355 9.75904 0.823801 7.5988 0.96553 5.44547C1.05411 4.09273 1.13383 2.73309 1.24013 1.38035C1.30214 0.690177 1.95763 0.289877 2.746 0.427911C3.31292 0.524535 3.66724 0.890327 3.68496 1.42176C3.70268 1.80826 3.68496 2.19475 3.68496 2.57435C3.68496 5.94929 3.68496 9.32423 3.6761 12.6992C3.6761 13.2651 3.92413 13.5481 4.4379 13.555C4.93395 13.5619 5.20855 13.2582 5.20855 12.7061C5.20855 8.97915 5.20855 5.24532 5.21741 1.51838C5.21741 0.938639 5.52744 0.565946 6.12093 0.441715C6.95359 0.26227 7.67109 0.724685 7.67995 1.44937C7.67995 3.14029 7.67995 4.83121 7.67995 6.52904C7.67995 6.73609 7.67995 6.95004 7.67109 7.164ZM7.67109 7.164C7.67995 7.164 7.67995 7.164 7.67109 7.164ZM4.79222 32.3829C4.70364 34.2326 4.59734 36.0891 4.50876 37.9388C4.42018 39.7401 4.32274 41.5415 4.25188 43.3428C4.20759 44.3781 5.22627 45.158 6.51955 45.1373C7.76853 45.1166 8.70749 44.3091 8.65434 43.3083C8.61005 42.3559 8.57462 41.4035 8.53033 40.451C8.35317 36.6206 8.16715 32.797 7.98113 28.9665C7.86597 26.6062 7.76853 24.2458 7.64452 21.8854C7.5648 20.3325 8.17601 18.9866 9.63759 17.9169C11.294 16.7091 12.0381 15.2459 11.8964 13.4791C11.6838 10.6908 11.5155 7.89558 11.3383 5.10038C11.2586 3.87877 11.1789 2.65027 11.0903 1.42866C11.0637 1.04216 10.8157 0.842015 10.4171 0.848916C10.0185 0.855818 9.78818 1.06977 9.78818 1.44937C9.78818 3.65102 9.77932 5.84577 9.77932 8.04742C9.77932 9.65552 9.78818 11.2705 9.77932 12.8786C9.77932 13.5964 9.06181 14.0864 8.21144 13.976C7.51165 13.9001 7.08646 13.4584 7.08646 12.8096C7.08646 9.12408 7.08646 5.43166 7.08646 1.74614C7.08646 1.5874 7.10418 1.42176 7.06875 1.26302C7.0156 0.993853 6.78529 0.855818 6.43982 0.855818C6.09436 0.855818 5.87291 0.993853 5.8109 1.26302C5.78432 1.38035 5.79318 1.50458 5.79318 1.62881C5.79318 3.92018 5.79318 6.21156 5.79318 8.50293C5.79318 9.95229 5.79318 11.4017 5.79318 12.851C5.79318 13.4791 5.28827 13.9484 4.57963 14.0036C3.74697 14.0588 3.11804 13.6102 3.10033 12.92C3.08261 11.9055 3.09147 10.8909 3.09147 9.88327C3.09147 7.07427 3.09147 4.27217 3.09147 1.46317C3.09147 1.09738 2.87002 0.883425 2.48912 0.869622C2.09936 0.842015 1.85134 1.05597 1.82476 1.43556C1.69189 3.40946 1.55902 5.38335 1.42615 7.35724C1.29328 9.35874 1.19584 11.3671 1.00982 13.3686C0.841517 15.2045 1.5856 16.7229 3.30406 17.979C4.69478 18.9866 5.37685 20.2635 5.31485 21.7335C5.17312 25.2741 4.96938 28.8285 4.79222 32.3829Z" stroke="black" stroke-miterlimit="10"/>
        <path d="M35.7069 31.7686C35.8929 28.0555 36.0789 24.3355 36.2561 20.6224C36.327 19.0764 35.6095 17.7857 34.1213 16.7712C32.518 15.6807 31.3665 14.3832 30.835 12.7682C30.4541 11.6087 30.4629 10.4354 30.6489 9.26902C30.9856 7.1847 31.6853 5.17629 32.8635 3.28522C33.1912 2.75379 33.6518 2.25686 34.139 1.80135C36.0524 -0.0207066 40.446 -0.421006 42.6605 2.35349C43.1831 3.00915 43.626 3.72693 43.9449 4.45851C44.627 5.9976 45.1673 7.57809 45.4331 9.2C45.814 11.4845 45.4154 13.6309 43.5375 15.4944C43.0945 15.9292 42.5808 16.3226 42.0493 16.6953C40.4991 17.7926 39.8171 19.1385 39.8968 20.7604C40.0828 24.4735 40.2422 28.1935 40.4194 31.9067C40.5966 35.6819 40.7826 39.4572 40.9598 43.2393C41.004 44.2539 40.2954 45.1097 39.1261 45.4617C37.9746 45.8137 36.7079 45.5859 35.8841 44.875C35.3614 44.4264 35.1134 43.895 35.1489 43.2876C35.326 39.6642 35.512 36.0408 35.6892 32.4105C35.6981 32.1965 35.6892 31.9826 35.6892 31.7755C35.6892 31.7686 35.6981 31.7686 35.7069 31.7686ZM36.2827 31.6858C36.1587 34.1566 36.0347 36.6275 35.9106 39.0983C35.8398 40.5131 35.7423 41.9349 35.7069 43.3497C35.6715 44.4747 37.0002 45.3305 38.4175 45.1442C39.6222 44.9923 40.4194 44.2125 40.3751 43.2117C40.2334 40.1818 40.0828 37.1589 39.9411 34.129C39.7285 29.5946 39.5159 25.0533 39.3033 20.5188C39.259 19.6216 39.5159 18.7727 40.0385 17.9652C40.5346 17.1991 41.2964 16.6125 42.0936 16.0327C44.3081 14.4315 45.1408 12.4162 44.9547 10.1041C44.7953 8.14404 44.1221 6.27367 43.3249 4.43091C43.0503 3.79595 42.6339 3.18169 42.1822 2.60885C40.3397 0.269166 36.8762 0.48312 35.1577 1.62881C34.3073 2.20165 33.6696 2.89872 33.2178 3.69242C32.3143 5.28672 31.7031 6.94313 31.331 8.66166C31.0564 9.95919 30.9501 11.2567 31.3576 12.5542C31.8448 14.1209 32.952 15.3701 34.4934 16.4192C36.203 17.5856 36.9382 19.0695 36.8319 20.8294C36.7522 22.1062 36.7079 23.383 36.637 24.6599C36.5219 27.0065 36.4067 29.3461 36.2827 31.6858Z" fill="black" stroke="black" stroke-miterlimit="10"/>
        <path d="M26.778 18.9728C26.7425 19.8425 26.6894 20.7121 26.6628 21.5817C26.6451 22.2236 26.2996 22.7343 25.6973 23.1415C25.1215 23.5211 24.528 23.88 23.9522 24.2596C23.5536 24.5218 23.1639 24.7841 22.7918 25.0671C22.3844 25.3776 22.1895 25.7641 22.2072 26.2197C22.2958 28.0348 22.3578 29.8431 22.4729 31.6582C22.6147 33.8046 22.8095 35.9442 22.9956 38.0906C23.1284 39.6642 23.2613 41.2447 23.4385 42.8183C23.5359 43.7224 23.2879 44.5092 22.4287 45.1442C21.4631 45.862 20.1344 45.8274 19.2397 45.0614C18.5931 44.5092 18.3008 43.8467 18.3185 43.1151C18.3805 39.5193 18.4691 35.9235 18.54 32.3277C18.6728 25.4605 18.8057 18.5932 18.9474 11.7191C19.0183 8.10953 19.098 4.50683 19.1689 0.897223C19.1689 0.68327 19.1955 0.490022 19.4878 0.386496C19.7712 0.28297 19.9838 0.407201 20.1876 0.538334C21.7023 1.53908 22.6678 2.84351 23.4385 4.24456C24.6609 6.46692 25.3518 8.7997 25.8479 11.1739C26.3882 13.7482 26.6805 16.3502 26.778 18.9728ZM19.8775 0.876518C19.8421 0.890322 19.7978 0.911027 19.7624 0.92483C19.7535 1.02836 19.7358 1.13878 19.7358 1.24231C19.6826 3.76834 19.6295 6.28747 19.5764 8.8135C19.4346 16.0603 19.2929 23.3002 19.1512 30.547C19.0714 34.7226 18.9829 38.8981 18.8943 43.0668C18.8766 43.7224 19.1423 44.3091 19.7181 44.7853C20.3293 45.296 21.2151 45.3443 21.8883 44.9026C22.597 44.4333 22.9424 43.8329 22.8804 43.1013C22.7387 41.5622 22.5792 40.03 22.4464 38.4978C22.2603 36.3652 22.0743 34.2326 21.9326 32.0999C21.7997 30.1053 21.7377 28.1107 21.6403 26.1161C21.6137 25.6054 21.8352 25.1706 22.2958 24.8255C22.8361 24.4183 23.4208 24.0525 23.9877 23.6591C24.5369 23.2864 25.1126 22.9344 25.6087 22.5272C25.8302 22.3478 25.9719 22.0579 26.0339 21.8025C26.1313 21.3677 26.1756 20.9122 26.1579 20.4705C26.0782 18.6623 26.0339 16.8471 25.8656 15.0389C25.591 12.1677 24.9886 9.33113 23.9079 6.56354C23.279 4.94854 22.4907 3.38875 21.1708 2.0222C20.7899 1.6219 20.3116 1.26301 19.8775 0.876518Z" fill="black" stroke="black" stroke-miterlimit="10"/>
        <path d="M4.79222 32.3829C4.96938 28.8285 5.17312 25.2741 5.32371 21.7197C5.38571 20.2497 4.70364 18.9728 3.31292 17.9652C1.5856 16.7091 0.850376 15.1907 1.01868 13.3548C1.19584 11.3533 1.30214 9.35183 1.43501 7.34343C1.56788 5.36953 1.70075 3.39564 1.83362 1.42174C1.8602 1.04905 2.10822 0.835098 2.49798 0.848902C2.87002 0.876509 3.09147 1.09046 3.09147 1.44935C3.09147 4.25835 3.09147 7.06045 3.09147 9.86946C3.09147 10.884 3.08261 11.8986 3.10033 12.9062C3.10919 13.5964 3.74697 14.045 4.57963 13.9898C5.28827 13.9415 5.79318 13.4722 5.79318 12.8372C5.80204 11.3878 5.79318 9.93847 5.79318 8.48911C5.79318 6.19774 5.79318 3.90637 5.79318 1.61499C5.79318 1.49076 5.78433 1.36653 5.8109 1.2492C5.87291 0.986936 6.09436 0.842 6.43982 0.842C6.78529 0.842 7.0156 0.980035 7.06875 1.2423C7.10418 1.40104 7.08646 1.56668 7.08646 1.72542C7.08646 5.41094 7.08646 9.10337 7.08646 12.7889C7.08646 13.4376 7.51165 13.8794 8.21144 13.9691C9.06181 14.0795 9.77932 13.5826 9.77932 12.8717C9.78818 11.2636 9.77932 9.6486 9.77932 8.0405C9.77932 5.83885 9.77932 3.6441 9.78818 1.44245C9.78818 1.06286 10.0185 0.848902 10.4171 0.842C10.8157 0.835098 11.0549 1.03525 11.0903 1.42174C11.1789 2.64335 11.2586 3.87186 11.3383 5.09346C11.5244 7.88866 11.6838 10.677 11.8964 13.4722C12.0293 15.239 11.2941 16.6953 9.63759 17.91C8.17601 18.9797 7.5648 20.3256 7.64452 21.8785C7.76854 24.2388 7.87483 26.5992 7.98113 28.9596C8.16715 32.7901 8.34431 36.6136 8.53033 40.4441C8.57462 41.3965 8.61005 42.349 8.65434 43.3014C8.69863 44.3022 7.75968 45.1097 6.51955 45.1304C5.22627 45.1511 4.20759 44.3712 4.24302 43.3428C4.31388 41.5415 4.41132 39.7401 4.4999 37.9388C4.59734 36.0891 4.69478 34.2394 4.79222 32.3829Z" fill="white" stroke="black" stroke-miterlimit="10"/>
        <path d="M36.2827 31.6858C36.3978 29.3461 36.5219 27.0064 36.637 24.6668C36.699 23.3899 36.7522 22.1131 36.8319 20.8363C36.9382 19.0764 36.203 17.5925 34.4934 16.4261C32.952 15.377 31.8448 14.1209 31.3576 12.5611C30.959 11.2636 31.0564 9.96608 31.331 8.66856C31.7031 6.95003 32.3143 5.29362 33.2178 3.69932C33.6696 2.89872 34.3073 2.20164 35.1577 1.6357C36.8762 0.490015 40.3397 0.276061 42.1822 2.61575C42.6339 3.18859 43.0503 3.80284 43.3249 4.4378C44.1221 6.28056 44.7953 8.15093 44.9547 10.111C45.1408 12.4231 44.3081 14.4384 42.0936 16.0396C41.2964 16.6124 40.5346 17.1991 40.0385 17.9721C39.5159 18.7796 39.259 19.6216 39.3033 20.5257C39.5159 25.0602 39.7285 29.6015 39.9411 34.1359C40.0828 37.1658 40.2422 40.1887 40.3751 43.2186C40.4194 44.2262 39.6222 44.9992 38.4175 45.1511C37.0002 45.3374 35.6715 44.4816 35.7069 43.3566C35.7423 41.9418 35.8398 40.52 35.9106 39.1052C36.0435 36.6274 36.1587 34.1566 36.2827 31.6858Z" fill="white" stroke="black" stroke-miterlimit="10"/>
        <path d="M19.8775 0.876526C20.3116 1.25612 20.7811 1.62191 21.1797 2.02911C22.4907 3.39566 23.279 4.95545 23.9168 6.57045C24.9975 9.33114 25.5998 12.1677 25.8744 15.0458C26.0427 16.854 26.0959 18.6692 26.1668 20.4774C26.1845 20.9191 26.1402 21.3746 26.0427 21.8095C25.9896 22.0648 25.8479 22.3478 25.6176 22.5341C25.1127 22.9413 24.5457 23.2933 23.9965 23.666C23.4296 24.0525 22.845 24.4183 22.3046 24.8324C21.8529 25.1775 21.6314 25.6123 21.6491 26.123C21.7466 28.1176 21.8086 30.1122 21.9415 32.1068C22.0832 34.2395 22.2692 36.3721 22.4552 38.5047C22.5881 40.0438 22.7475 41.576 22.8893 43.1082C22.9513 43.8329 22.6147 44.4402 21.8972 44.9095C21.224 45.3512 20.3381 45.3029 19.7269 44.7922C19.1512 44.3091 18.8943 43.7293 18.9031 43.0737C18.9917 38.8981 19.0714 34.7226 19.16 30.5539C19.3018 23.3071 19.4435 16.0672 19.5852 8.82041C19.6384 6.29438 19.6915 3.77525 19.7447 1.24922C19.7447 1.14569 19.7624 1.03527 19.7712 0.93174C19.8067 0.911035 19.8421 0.897231 19.8775 0.876526Z" fill="white" stroke="black" stroke-miterlimit="10"/>
    </g>
    <defs>
        <clipPath id="clip0_7_26">
            <rect width="46" height="46" fill="white"/>
        </clipPath>
    </defs>
</svg>
